# xmcd
#
# Track frame offsets: 
#        150
#        14042
#        26737
#        41742
#        59037
#        74075
#        98422
#        112667
#        125457
#        139450
#        153707
#        169537
#
# Disc length: 2489 seconds
#
# Revision: 0
# Processed by: cddbd v1.5.2PL0 Copyright (c) Steve Scherf et al.
# Submitted via: ExactAudioCopy v0.99pb5
#
DISCID=ad09b70c
DTITLE=Emmylou Harris - Last Date
DYEAR=1982
DGENRE=Country
TTITLE0=I'm Movin' On
TTITLE1=It's Not Love (But It's Not Bad)
TTITLE2=So Sad (To Watch Good Love Go Bad)
TTITLE3=Return of the Grevious Angel
TTITLE4=Restless
TTITLE5=Racing In the Street
TTITLE6=Long May You Run
TTITLE7=We'll Sweep Out the Ashes (In the Morning)
TTITLE8=Juanita
TTITLE9=Devil In Disguise
TTITLE10=(Lost His Love) On Our First Date
TTITLE11=Buckaroo/Love's Gonna Live Here Again (Medley)
EXTD=
EXTT0=
EXTT1=
EXTT2=
EXTT3=
EXTT4=
EXTT5=
EXTT6=
EXTT7=
EXTT8=
EXTT9=
EXTT10=
EXTT11=
PLAYORDER=
